<svg width="66" height="67" viewBox="0 0 66 67" fill="none" xmlns="http://www.w3.org/2000/svg">
<rect y="0.313965" width="65.2051" height="66.5924" rx="13" fill="#006380"/>
<path d="M22.8911 36.5586C22.4795 36.5586 22.0772 36.6806 21.735 36.9093C21.3928 37.138 21.126 37.463 20.9685 37.8432C20.811 38.2235 20.7698 38.6419 20.8501 39.0456C20.9304 39.4493 21.1286 39.8201 21.4196 40.1111C21.7107 40.4021 22.0815 40.6003 22.4851 40.6806C22.8888 40.7609 23.3072 40.7197 23.6875 40.5622C24.0678 40.4047 24.3928 40.138 24.6214 39.7958C24.8501 39.4535 24.9721 39.0512 24.9721 38.6396C24.9721 38.0877 24.7529 37.5584 24.3626 37.1681C23.9724 36.7778 23.4431 36.5586 22.8911 36.5586ZM22.8911 39.6801C22.6853 39.6801 22.4842 39.6191 22.3131 39.5048C22.1419 39.3904 22.0086 39.2279 21.9298 39.0378C21.8511 38.8477 21.8305 38.6385 21.8706 38.4366C21.9108 38.2348 22.0099 38.0494 22.1554 37.9039C22.3009 37.7583 22.4863 37.6592 22.6881 37.6191C22.89 37.5789 23.0992 37.5996 23.2893 37.6783C23.4794 37.7571 23.642 37.8904 23.7563 38.0615C23.8706 38.2326 23.9316 38.4338 23.9316 38.6396C23.9316 38.9156 23.822 39.1802 23.6269 39.3754C23.4318 39.5705 23.1671 39.6801 22.8911 39.6801Z" fill="white"/>
<path d="M43.7012 36.5586C43.2897 36.5586 42.8873 36.6806 42.5451 36.9093C42.2029 37.138 41.9362 37.463 41.7786 37.8432C41.6211 38.2235 41.5799 38.6419 41.6602 39.0456C41.7405 39.4493 41.9387 39.8201 42.2298 40.1111C42.5208 40.4021 42.8916 40.6003 43.2953 40.6806C43.6989 40.7609 44.1174 40.7197 44.4976 40.5622C44.8779 40.4047 45.2029 40.138 45.4315 39.7958C45.6602 39.4535 45.7823 39.0512 45.7823 38.6396C45.7823 38.0877 45.563 37.5584 45.1727 37.1681C44.7825 36.7778 44.2532 36.5586 43.7012 36.5586ZM43.7012 39.6801C43.4955 39.6801 43.2943 39.6191 43.1232 39.5048C42.9521 39.3904 42.8187 39.2279 42.7399 39.0378C42.6612 38.8477 42.6406 38.6385 42.6807 38.4366C42.7209 38.2348 42.82 38.0494 42.9655 37.9039C43.111 37.7583 43.2964 37.6592 43.4983 37.6191C43.7001 37.5789 43.9093 37.5996 44.0994 37.6783C44.2896 37.7571 44.4521 37.8904 44.5664 38.0615C44.6807 38.2326 44.7418 38.4338 44.7418 38.6396C44.7418 38.9156 44.6321 39.1802 44.437 39.3754C44.2419 39.5705 43.9772 39.6801 43.7012 39.6801Z" fill="white"/>
<path d="M28.614 39.1597H37.9785V40.2002H28.614V39.1597Z" fill="white"/>
<path d="M28.614 37.0786H37.9785V38.1191H28.614V37.0786Z" fill="white"/>
<path d="M31.7355 29.2749H34.857V30.3154H31.7355V29.2749Z" fill="white"/>
<path d="M48.9038 33.957V32.9165C48.9026 32.503 48.7377 32.1067 48.4453 31.8143C48.1529 31.5218 47.7566 31.357 47.343 31.3558H45.2828L44.2059 27.5787L43.8833 26.2937C43.7987 25.9563 43.6038 25.6568 43.3295 25.4429C43.0552 25.2289 42.7173 25.1127 42.3694 25.1127H37.9785V23.0317C37.9776 22.756 37.8678 22.4918 37.6728 22.2969C37.4778 22.1019 37.2137 21.992 36.938 21.9912H29.6544C29.3787 21.992 29.1145 22.1019 28.9196 22.2969C28.7246 22.4918 28.6147 22.756 28.6139 23.0317V25.1127H24.223C23.8751 25.1127 23.5372 25.2289 23.2629 25.4429C22.9886 25.6568 22.7937 25.9563 22.709 26.2937L22.3917 27.5735L21.3096 31.3558H19.2494C18.8358 31.357 18.4395 31.5218 18.1471 31.8143C17.8547 32.1067 17.6898 32.503 17.6886 32.9165V33.957C17.6894 34.2206 17.7572 34.4796 17.8855 34.7098C18.0138 34.9401 18.1985 35.1339 18.4222 35.2733C17.9518 35.7565 17.6887 36.4042 17.6886 37.0786V43.3216C17.6893 43.5399 17.736 43.7555 17.8257 43.9545C17.9153 44.1535 18.0459 44.3314 18.2089 44.4766V46.4431C18.2101 46.8567 18.3749 47.2529 18.6674 47.5454C18.9598 47.8378 19.3561 48.0026 19.7696 48.0039H23.9316C24.3452 48.0026 24.7415 47.8378 25.0339 47.5454C25.3263 47.2529 25.4912 46.8567 25.4924 46.4431V44.8824H41.1V46.4431C41.1012 46.8567 41.2661 47.2529 41.5585 47.5454C41.8509 47.8378 42.2472 48.0026 42.6607 48.0039H46.8228C47.2363 48.0026 47.6326 47.8378 47.925 47.5454C48.2175 47.2529 48.3823 46.8567 48.3835 46.4431V44.4766C48.5465 44.3314 48.6771 44.1535 48.7667 43.9545C48.8564 43.7555 48.9031 43.5399 48.9038 43.3216V37.0786C48.9037 36.4042 48.6405 35.7565 48.1702 35.2733C48.3939 35.1339 48.5786 34.9401 48.7069 34.7098C48.8352 34.4796 48.9029 34.2206 48.9038 33.957ZM29.6544 23.0317H36.938V25.1127H29.6544V23.0317ZM23.7183 26.5486C23.7462 26.4358 23.8111 26.3356 23.9025 26.264C23.994 26.1923 24.1068 26.1533 24.223 26.1532H42.3694C42.4856 26.1533 42.5984 26.1923 42.6899 26.264C42.7813 26.3356 42.8462 26.4358 42.8741 26.5486L43.0353 27.1937H23.5571L23.7183 26.5486ZM23.2813 28.2342H43.3111L45.0903 34.4773H30.1279C30.0056 33.7502 29.6296 33.09 29.0667 32.6139C28.5038 32.1378 27.7904 31.8765 27.0532 31.8765C26.3159 31.8765 25.6025 32.1378 25.0396 32.6139C24.4767 33.09 24.1007 33.7502 23.9785 34.4773H21.5021L23.2813 28.2342ZM29.0613 34.4773H25.045C25.1586 34.0309 25.4177 33.635 25.7813 33.3523C26.145 33.0696 26.5925 32.9161 27.0532 32.9161C27.5138 32.9161 27.9613 33.0696 28.325 33.3523C28.6886 33.635 28.9477 34.0309 29.0613 34.4773ZM18.7291 32.9165C18.7291 32.7785 18.7839 32.6462 18.8815 32.5487C18.979 32.4511 19.1114 32.3963 19.2494 32.3963H21.013L20.4199 34.4773H19.2494C19.1114 34.4773 18.979 34.4225 18.8815 34.3249C18.7839 34.2273 18.7291 34.095 18.7291 33.957V32.9165ZM24.4519 46.4431C24.4519 46.5811 24.3971 46.7134 24.2995 46.811C24.2019 46.9086 24.0696 46.9634 23.9316 46.9634H19.7696C19.6316 46.9634 19.4993 46.9086 19.4017 46.811C19.3042 46.7134 19.2494 46.5811 19.2494 46.4431V44.8824H24.4519V46.4431ZM47.343 46.4431C47.343 46.5811 47.2882 46.7134 47.1906 46.811C47.0931 46.9086 46.9608 46.9634 46.8228 46.9634H42.6607C42.5228 46.9634 42.3904 46.9086 42.2929 46.811C42.1953 46.7134 42.1405 46.5811 42.1405 46.4431V44.8824H47.343V46.4431ZM47.8633 43.3216C47.8633 43.4596 47.8085 43.5919 47.7109 43.6895C47.6133 43.787 47.481 43.8418 47.343 43.8418H19.2494C19.1114 43.8418 18.979 43.787 18.8815 43.6895C18.7839 43.5919 18.7291 43.4596 18.7291 43.3216V42.8013H47.8633V43.3216ZM47.8633 41.7608H18.7291V37.0786C18.7303 36.665 18.8952 36.2687 19.1876 35.9763C19.48 35.6839 19.8763 35.519 20.2899 35.5178H46.3025C46.7161 35.519 47.1123 35.6839 47.4048 35.9763C47.6972 36.2687 47.862 36.665 47.8633 37.0786V41.7608ZM47.8633 33.957C47.8633 34.095 47.8085 34.2273 47.7109 34.3249C47.6133 34.4225 47.481 34.4773 47.343 34.4773H46.1725L45.5794 32.3963H47.343C47.481 32.3963 47.6133 32.4511 47.7109 32.5487C47.8085 32.6462 47.8633 32.7785 47.8633 32.9165V33.957Z" fill="white"/>
</svg>
