<svg width="66" height="68" viewBox="0 0 66 68" fill="none" xmlns="http://www.w3.org/2000/svg">
<rect y="0.931641" width="65.2051" height="66.5924" rx="13" fill="#F15A2B"/>
<path d="M45.5303 45.2278C44.9058 45.2406 44.2924 45.0619 43.7724 44.7158C43.3853 44.4629 42.933 44.3282 42.4707 44.3282C42.0083 44.3282 41.556 44.4629 41.169 44.7158C40.6437 45.0502 40.0339 45.2278 39.4113 45.2278C38.7886 45.2278 38.1788 45.0502 37.6535 44.7158C37.2665 44.4626 36.8141 44.3278 36.3516 44.3278C35.8891 44.3278 35.4367 44.4626 35.0497 44.7158C34.5244 45.0502 33.9146 45.2278 33.292 45.2278C32.6693 45.2278 32.0595 45.0502 31.5342 44.7158C31.1475 44.4628 30.6953 44.3281 30.2332 44.3281C29.771 44.3281 29.3189 44.4628 28.9322 44.7158C28.4559 45.0323 27.9002 45.2082 27.3286 45.2233L27.2971 44.3234C27.7193 44.3134 28.1293 44.1798 28.4764 43.9392C29.0015 43.6048 29.6111 43.4272 30.2336 43.4272C30.8562 43.4272 31.4658 43.6048 31.9909 43.9392C32.3779 44.1922 32.8303 44.3269 33.2926 44.3269C33.755 44.3269 34.2073 44.1922 34.5943 43.9392C35.1197 43.6045 35.7296 43.4268 36.3525 43.4268C36.9754 43.4268 37.5853 43.6045 38.1107 43.9392C38.4977 44.1922 38.95 44.3269 39.4124 44.3269C39.8747 44.3269 40.3271 44.1922 40.7141 43.9392C41.2394 43.6049 41.8491 43.4273 42.4718 43.4273C43.0945 43.4273 43.7042 43.6049 44.2295 43.9392C44.6175 44.1928 45.0709 44.3278 45.5344 44.3278C45.9979 44.3278 46.4513 44.1928 46.8392 43.9392C47.3586 43.5941 47.971 43.4157 48.5945 43.428V44.3279C48.1303 44.3152 47.6741 44.4509 47.2923 44.7153C46.7711 45.062 46.1562 45.2408 45.5303 45.2278Z" fill="white"/>
<path d="M21.0576 45.2278C20.4332 45.2407 19.8198 45.062 19.3001 44.7158C18.9184 44.4511 18.4622 44.3153 17.9979 44.3279V43.428C18.6225 43.415 19.236 43.5937 19.7559 43.94C20.1374 44.2047 20.5934 44.3406 21.0576 44.3279C21.5219 44.3407 21.9782 44.2046 22.3597 43.9396C22.8785 43.5935 23.491 43.4149 24.1145 43.428C24.7229 43.4143 25.3213 43.5848 25.8311 43.9171L25.3771 44.6937C25.0047 44.4431 24.5632 44.3152 24.1145 44.3279C23.6521 44.3154 23.1978 44.451 22.8178 44.7149C22.2974 45.0621 21.683 45.2411 21.0576 45.2278Z" fill="white"/>
<path d="M45.5316 42.0778C44.9067 42.0906 44.2928 41.9119 43.7723 41.5658C43.385 41.3126 42.9323 41.1778 42.4695 41.1778C42.0068 41.1778 41.5541 41.3126 41.1667 41.5658C40.6415 41.9001 40.0318 42.0777 39.4092 42.0777C38.7866 42.0777 38.1769 41.9001 37.6517 41.5658C37.2648 41.3128 36.8127 41.1781 36.3504 41.1781C35.8882 41.1781 35.436 41.3128 35.0492 41.5658C34.524 41.9002 33.9143 42.0779 33.2917 42.0779C32.6691 42.0779 32.0594 41.9002 31.5342 41.5658C31.1473 41.3128 30.6951 41.1781 30.2329 41.1781C29.7707 41.1781 29.3185 41.3128 28.9317 41.5658C28.412 41.9121 27.7986 42.0908 27.1742 42.0778C26.5498 42.0908 25.9364 41.9121 25.4167 41.5658C25.0353 41.3012 24.5794 41.1653 24.1154 41.1779C23.6516 41.1653 23.1958 41.3012 22.8146 41.5658C22.2957 41.9117 21.6833 42.0904 21.0598 42.0778C20.4353 42.0908 19.8218 41.9121 19.3019 41.5658C18.9198 41.3006 18.4628 41.1647 17.9979 41.1779V40.278C18.6223 40.2651 19.2357 40.4438 19.7554 40.7901C20.1371 41.0547 20.5933 41.1906 21.0576 41.1779C21.5214 41.1905 21.9772 41.0546 22.3584 40.7901C22.8773 40.4442 23.4897 40.2655 24.1132 40.278C24.738 40.2648 25.3519 40.4435 25.872 40.7901C26.2535 41.0548 26.7096 41.1907 27.1737 41.1779C27.6379 41.1907 28.0939 41.0548 28.4754 40.7901C29.0006 40.4556 29.6103 40.2779 30.2329 40.2779C30.8556 40.2779 31.4653 40.4556 31.9904 40.7901C32.3773 41.0431 32.8296 41.1778 33.2919 41.1778C33.7542 41.1778 34.2065 41.0431 34.5934 40.7901C35.1185 40.4556 35.7283 40.2779 36.3509 40.2779C36.9735 40.2779 37.5832 40.4556 38.1084 40.7901C38.4953 41.0431 38.9476 41.1778 39.4099 41.1778C39.8722 41.1778 40.3244 41.0431 40.7113 40.7901C41.237 40.4557 41.8472 40.2781 42.4702 40.2781C43.0932 40.2781 43.7033 40.4557 44.229 40.7901C44.6166 41.043 45.0695 41.1777 45.5323 41.1777C45.9952 41.1777 46.448 41.043 46.8356 40.7901C47.3559 40.444 47.9697 40.2654 48.5944 40.278V41.1779C48.1293 41.1648 47.6721 41.3007 47.2896 41.5658C46.7695 41.9116 46.1561 42.0903 45.5316 42.0778Z" fill="white"/>
<path d="M45.5303 38.9285C44.9058 38.9412 44.2923 38.7626 43.7723 38.4164C43.3906 38.1518 42.9344 38.0159 42.4702 38.0286C42.1295 38.0169 41.7911 38.0895 41.4852 38.2401L41.0884 37.4302C41.5179 37.2196 41.9919 37.1157 42.4702 37.1273C43.0954 37.1146 43.7096 37.2938 44.2299 37.6407C44.6179 37.8943 45.0713 38.0294 45.5348 38.0294C45.9983 38.0294 46.4517 37.8943 46.8396 37.6407C47.3588 37.2954 47.971 37.1167 48.5944 37.1287V38.0286C48.1302 38.0159 47.6741 38.1516 47.2923 38.416C46.771 38.7626 46.1561 38.9415 45.5303 38.9285Z" fill="white"/>
<path d="M39.4065 38.9284C38.783 38.9415 38.1705 38.7629 37.6517 38.4168C37.2647 38.1637 36.8122 38.0288 36.3498 38.0288C35.8873 38.0288 35.4349 38.1637 35.0478 38.4168C34.5226 38.7512 33.9128 38.9288 33.2901 38.9288C32.6674 38.9288 32.0577 38.7512 31.5324 38.4168C31.1454 38.1638 30.693 38.0291 30.2307 38.0291C29.7683 38.0291 29.316 38.1638 28.929 38.4168C28.4093 38.7625 27.7964 38.941 27.1724 38.9284C26.548 38.9413 25.9346 38.7626 25.4149 38.4164C25.0332 38.1517 24.577 38.0159 24.1127 38.0285C23.6503 38.016 23.196 38.1516 22.816 38.4155C22.2961 38.7623 21.6824 38.9414 21.0576 38.9284C20.4332 38.9413 19.8198 38.7626 19.3001 38.4164C18.9184 38.1517 18.4622 38.0159 17.9979 38.0285V37.1286C18.6225 37.1156 19.236 37.2943 19.7559 37.6406C20.1374 37.9053 20.5934 38.0412 21.0576 38.0285C21.5219 38.0413 21.9782 37.9052 22.3597 37.6402C22.8785 37.2941 23.491 37.1155 24.1145 37.1286C24.7389 37.1157 25.3523 37.2944 25.872 37.6406C26.2535 37.9053 26.7096 38.0412 27.1737 38.0285C27.638 38.0411 28.0942 37.9053 28.4759 37.6406C29.0011 37.3062 29.6109 37.1286 30.2336 37.1286C30.8563 37.1286 31.4661 37.3062 31.9913 37.6406C32.3783 37.8936 32.8307 38.0284 33.293 38.0284C33.7554 38.0284 34.2077 37.8936 34.5947 37.6406C35.1201 37.306 35.73 37.1282 36.3529 37.1282C36.9758 37.1282 37.5857 37.306 38.1111 37.6406C38.5075 37.9073 38.9776 38.0428 39.4551 38.028C39.4898 38.0285 39.5245 38.0267 39.559 38.0226L39.6787 38.9144C39.5884 38.925 39.4974 38.9296 39.4065 38.9284Z" fill="white"/>
<path d="M45.5316 35.778C44.9067 35.7908 44.2928 35.6121 43.7723 35.266C43.385 35.0128 42.9323 34.878 42.4695 34.878C42.0068 34.878 41.5541 35.0128 41.1667 35.266C40.6415 35.6003 40.0318 35.7779 39.4092 35.7779C38.7866 35.7779 38.1769 35.6003 37.6517 35.266C37.2648 35.013 36.8127 34.8783 36.3504 34.8783C35.8882 34.8783 35.436 35.013 35.0492 35.266C34.524 35.6004 33.9143 35.7781 33.2917 35.7781C32.6691 35.7781 32.0594 35.6004 31.5342 35.266C31.1473 35.013 30.6951 34.8783 30.2329 34.8783C29.7707 34.8783 29.3185 35.013 28.9317 35.266C28.412 35.6123 27.7986 35.791 27.1742 35.778C26.5498 35.791 25.9364 35.6123 25.4167 35.266C25.0353 35.0014 24.5794 34.8655 24.1154 34.8781C23.6516 34.8655 23.1958 35.0014 22.8146 35.266C22.2957 35.6119 21.6833 35.7906 21.0598 35.778C20.4353 35.791 19.8218 35.6123 19.3019 35.266C18.9198 35.0008 18.4628 34.8649 17.9979 34.8781V33.9782C18.6223 33.9653 19.2357 34.144 19.7554 34.4903C20.1371 34.7549 20.5933 34.8908 21.0576 34.8781C21.5214 34.8907 21.9772 34.7548 22.3584 34.4903C22.8773 34.1444 23.4897 33.9657 24.1132 33.9782C24.738 33.965 25.3519 34.1437 25.872 34.4903C26.2535 34.755 26.7096 34.8909 27.1737 34.8781C27.6379 34.8909 28.0939 34.755 28.4754 34.4903C29.0006 34.1558 29.6103 33.9781 30.2329 33.9781C30.8556 33.9781 31.4653 34.1558 31.9904 34.4903C32.3773 34.7433 32.8296 34.878 33.2919 34.878C33.7542 34.878 34.2065 34.7433 34.5934 34.4903C35.1185 34.1558 35.7283 33.9781 36.3509 33.9781C36.9735 33.9781 37.5832 34.1558 38.1084 34.4903C38.4953 34.7433 38.9476 34.878 39.4099 34.878C39.8722 34.878 40.3244 34.7433 40.7113 34.4903C41.237 34.1559 41.8472 33.9783 42.4702 33.9783C43.0932 33.9783 43.7033 34.1559 44.229 34.4903C44.6166 34.7432 45.0695 34.8779 45.5323 34.8779C45.9952 34.8779 46.448 34.7432 46.8356 34.4903C47.3559 34.1442 47.9697 33.9656 48.5944 33.9782V34.8781C48.1293 34.865 47.6721 35.0009 47.2896 35.266C46.7695 35.6118 46.1561 35.7905 45.5316 35.778Z" fill="white"/>
<path d="M39.1198 35.3967L38.2708 35.0988C38.4894 34.4706 38.5788 33.8046 38.5334 33.1409C38.488 32.4772 38.3088 31.8296 38.0066 31.2369L34.9159 25.1847C34.8854 25.1249 34.8687 25.0591 34.8669 24.992C34.8651 24.9249 34.8784 24.8583 34.9057 24.797C34.933 24.7357 34.9736 24.6812 35.0247 24.6377C35.0758 24.5942 35.1359 24.5626 35.2008 24.5453L41.3601 22.903C41.5608 22.8505 41.7327 22.7209 41.8383 22.5423C41.944 22.3637 41.9748 22.1507 41.9241 21.9495C41.8735 21.7483 41.7454 21.5753 41.5679 21.468C41.3903 21.3607 41.1775 21.3279 40.9759 21.3768L33.5211 23.1586C33.3617 23.1962 33.2132 23.2701 33.0869 23.3744C32.9607 23.4787 32.8602 23.6106 32.7931 23.76C32.7261 23.9094 32.6943 24.0722 32.7003 24.2359C32.7063 24.3995 32.7499 24.5596 32.8277 24.7037L35.0415 28.8162C35.0976 28.9207 35.1102 29.0432 35.0765 29.157C35.0428 29.2707 34.9655 29.3666 34.8615 29.4236L32.0043 30.9985L31.5701 30.2101L34.0367 28.8504L32.0363 25.1302C31.8932 24.8647 31.8131 24.5697 31.8021 24.2682C31.7912 23.9668 31.8498 23.6668 31.9733 23.3916C32.0968 23.1164 32.282 22.8732 32.5145 22.681C32.747 22.4887 33.0206 22.3526 33.3141 22.283L40.7653 20.5016C41.1991 20.392 41.6586 20.4592 42.0428 20.6884C42.4271 20.9176 42.7045 21.2901 42.8141 21.7239C42.9237 22.1577 42.8565 22.6172 42.6273 23.0015C42.3981 23.3857 42.0256 23.6631 41.5918 23.7727L35.9702 25.2711L38.8085 30.827C39.1659 31.5283 39.3777 32.2947 39.4312 33.08C39.4847 33.8654 39.3788 34.6534 39.1198 35.3967Z" fill="white"/>
<path d="M29.9975 31.0842L24.5296 34.0972L24.9637 34.8849L30.4316 31.872L29.9975 31.0842Z" fill="white"/>
<path d="M43.195 32.404C42.5276 32.404 41.8752 32.2061 41.3202 31.8353C40.7653 31.4645 40.3327 30.9374 40.0773 30.3208C39.8219 29.7042 39.7551 29.0257 39.8853 28.371C40.0155 27.7164 40.3369 27.1151 40.8088 26.6432C41.2808 26.1712 41.8821 25.8498 42.5367 25.7196C43.1913 25.5894 43.8698 25.6562 44.4865 25.9117C45.1031 26.1671 45.6301 26.5996 46.0009 27.1546C46.3717 27.7095 46.5697 28.362 46.5697 29.0294C46.5687 29.9241 46.2129 30.7819 45.5802 31.4146C44.9476 32.0472 44.0898 32.4031 43.195 32.404ZM43.195 26.5547C42.7056 26.5547 42.2271 26.6998 41.8202 26.9717C41.4132 27.2437 41.096 27.6302 40.9087 28.0824C40.7214 28.5346 40.6724 29.0321 40.7679 29.5122C40.8634 29.9922 41.0991 30.4332 41.4452 30.7793C41.7913 31.1254 42.2322 31.3611 42.7123 31.4566C43.1923 31.5521 43.6899 31.503 44.1421 31.3157C44.5943 31.1284 44.9808 30.8112 45.2527 30.4043C45.5246 29.9973 45.6698 29.5189 45.6698 29.0294C45.6689 28.3733 45.4079 27.7443 44.944 27.2804C44.4801 26.8165 43.8511 26.5555 43.195 26.5547Z" fill="white"/>
</svg>
